<svg width="1024" height="1024" viewBox="0 0 1024 1024" fill="none" xmlns="http://www.w3.org/2000/svg">
<g clip-path="url(#clip0_2_18)">
<path d="M512 512C471.179 459.752 411.275 425.859 345.465 417.779C279.655 409.698 213.331 428.092 161.082 468.913C108.834 509.733 74.9415 569.638 66.8611 635.448C58.7807 701.258 77.174 767.582 117.995 819.831L314.998 665.915L512 512Z" fill="#FF6A6A"/>
<path d="M906.005 204.169C946.826 256.418 965.22 322.742 957.139 388.552C949.059 454.362 915.167 514.266 862.918 555.087C810.67 595.908 744.345 614.301 678.536 606.221C612.726 598.141 552.821 564.248 512 512L709.003 358.085L906.005 204.169Z" fill="#FF0000"/>
<path d="M512 512C564.248 471.179 598.141 411.275 606.221 345.465C614.302 279.655 595.908 213.331 555.087 161.082C514.266 108.834 454.362 74.9414 388.552 66.861C322.742 58.7805 256.418 77.1739 204.169 117.995L358.085 314.998L512 512Z" fill="#C70000"/>
<path d="M819.83 906.006C767.582 946.826 701.258 965.22 635.448 957.139C569.638 949.059 509.733 915.167 468.912 862.918C428.092 810.67 409.698 744.345 417.779 678.536C425.859 612.726 459.751 552.821 512 512L665.915 709.003L819.83 906.006Z" fill="#FF4040"/>
</g>
<defs>
<clipPath id="clip0_2_18">
<rect width="1024" height="1024" fill="white"/>
</clipPath>
</defs>
</svg>
