<svg version="1.1" id="Layer_1" xmlns="http://www.w3.org/2000/svg" xmlns:xlink="http://www.w3.org/1999/xlink" x="0px" y="0px"
	 width="100%" viewBox="0 0 1024 768" enable-background="new 0 0 1024 768" xml:space="preserve">
<path fill="#000000" opacity="1.000000" stroke="none" 
	d="
M528.000000,769.000000 
	C353.500000,769.000000 179.499985,768.985962 5.500058,769.093811 
	C1.750692,769.096130 0.905138,768.249146 0.906664,764.499939 
	C1.009680,511.500000 1.009680,258.500000 0.906664,5.500038 
	C0.905138,1.750831 1.750902,0.905800 5.500028,0.906912 
	C343.833344,1.007255 682.166687,1.007255 1020.500000,0.906912 
	C1024.249146,0.905800 1025.094971,1.750830 1025.093506,5.500038 
	C1024.990479,258.500000 1024.990356,511.500000 1025.093384,764.499939 
	C1025.094971,768.249146 1024.249390,769.096375 1020.499939,769.093872 
	C856.500000,768.985107 692.500000,769.000000 528.000000,769.000000 
z"/>
<path fill="#010102" opacity="1.000000" stroke="none" 
	d="
M512.843628,317.332336 
	C514.124023,316.109283 515.201355,315.230713 516.517212,314.173279 
	C518.711365,313.787567 520.392456,314.441376 521.515320,315.998871 
	C523.782349,319.143158 527.255127,320.822296 530.006409,323.311981 
	C533.291687,326.284943 535.322754,325.710541 537.683838,322.156128 
	C542.374268,318.469635 546.129700,314.306030 549.920471,310.212433 
	C551.615723,308.381775 553.334045,306.683411 555.645386,305.072632 
	C562.242981,297.387329 569.769043,291.087799 576.593872,283.599792 
	C581.808594,278.762634 586.291321,273.703064 591.226868,269.103302 
	C595.234192,265.368652 599.505615,262.034180 605.494629,260.875183 
	C609.620178,258.472382 613.787415,258.636139 617.914856,258.668427 
	C623.360229,258.710999 628.815125,258.380615 634.706177,259.044189 
	C639.490234,258.582825 643.861328,258.851318 648.643799,258.178162 
	C657.108398,259.663818 665.219849,258.183838 673.689819,259.040924 
	C677.311096,260.602600 677.604187,262.675140 675.367493,265.234985 
	C674.621887,266.088348 673.843506,266.910187 673.096436,268.249908 
	C666.679382,275.129456 660.453247,281.671631 653.405396,287.876526 
	C645.020142,297.043915 636.275269,305.362518 627.397461,314.037048 
	C618.312500,323.454742 609.603027,332.759216 599.659668,341.343719 
	C590.618835,349.929962 580.532837,354.843903 567.723511,353.827820 
	C553.601562,355.260803 542.574158,349.446991 532.876221,340.551086 
	C526.799622,334.977051 521.165955,328.928711 515.190552,322.709534 
	C513.421631,321.222107 512.252991,319.802063 512.843628,317.332336 
z"/>
<path fill="#5458F9" opacity="1.000000" stroke="none" 
	d="
M512.728333,316.876587 
	C513.993591,318.054047 514.940430,319.120239 515.997803,320.474121 
	C518.395142,325.074524 519.384705,329.485382 518.519165,334.484619 
	C517.881165,338.169495 518.218140,342.041290 518.593506,345.819916 
	C518.870667,348.610840 518.306213,350.781891 514.499634,350.985168 
	C512.017090,350.755157 511.246857,352.496826 510.132874,353.597198 
	C502.623749,361.014252 495.171051,368.488434 487.391052,376.087860 
	C482.924011,375.663635 481.965851,372.802307 481.746399,369.156982 
	C481.421936,363.768158 482.486328,358.256836 480.423767,352.605042 
	C480.449005,351.935394 480.474274,351.671661 480.531647,351.021301 
	C480.600800,350.384399 480.637848,350.134094 480.779205,349.530304 
	C480.996674,348.968048 481.109833,348.759247 481.436890,348.278961 
	C481.958710,347.704681 482.282379,347.420105 482.821777,346.944336 
	C483.121857,346.567841 483.230438,346.410675 483.504639,346.025757 
	C483.782562,345.652100 483.894928,345.506134 484.342957,344.939148 
	C484.785797,344.378235 484.892975,344.238281 485.154358,343.881561 
	C485.406616,343.513550 485.504700,343.362305 485.743866,342.975769 
	C486.076782,342.405792 486.270233,342.071991 486.607544,341.451904 
	C492.824890,333.532837 492.821747,333.536011 485.747955,326.478760 
	C483.164154,323.901001 480.556244,321.346832 478.055054,318.687378 
	C476.777100,317.328552 475.741455,315.856140 475.841492,313.502747 
	C475.574524,305.118378 476.605835,297.078888 475.202118,289.079590 
	C474.729950,286.388763 475.377350,283.990082 479.487701,284.517883 
	C490.728882,295.222321 501.569427,305.993805 512.728333,316.876587 
z"/>
<path fill="#416FFA" opacity="1.000000" stroke="none" 
	d="
M437.793274,393.344330 
	C442.779816,387.494385 442.777130,387.497070 437.404907,382.129395 
	C435.654114,380.380066 433.921234,378.612762 432.039734,376.558441 
	C426.808228,372.478638 427.228485,367.115417 427.136322,361.569336 
	C427.062500,357.127106 426.632141,352.667511 426.816620,348.203400 
	C426.917664,345.758423 427.468994,343.549713 430.815826,343.059875 
	C431.482849,343.145752 431.739380,343.210632 432.368530,343.380615 
	C433.210358,343.643158 433.656403,343.848969 434.342468,344.320923 
	C434.774353,344.664764 434.934448,344.809052 435.308563,345.175964 
	C435.651672,345.546173 435.780762,345.693817 436.258911,346.267334 
	C436.717529,346.827057 436.827087,346.960907 437.259644,347.471466 
	C437.582611,347.848145 437.907104,348.201538 438.239838,348.533417 
	C438.572571,348.865295 438.920715,349.176605 439.291321,349.467224 
	C439.661957,349.757843 440.064270,350.033234 440.499695,350.303040 
	C441.409454,350.855652 441.870270,351.161682 442.650726,351.548431 
	C446.234070,354.253662 449.045197,357.335419 451.986877,360.274048 
	C455.381714,363.665314 458.560211,367.307800 463.394958,369.481689 
	C464.713867,378.325562 466.524475,386.825653 464.332733,395.438110 
	C464.078766,396.436096 464.467896,397.410370 464.479431,398.819641 
	C464.786316,401.432037 463.388763,402.851471 461.847412,404.589844 
	C454.483612,412.511353 446.994904,419.761597 439.547241,427.049011 
	C437.587555,428.966583 435.709930,431.338898 432.011353,430.553284 
	C429.577881,429.392517 428.104492,427.868408 427.988403,425.508820 
	C427.625488,418.133026 427.215393,410.750946 428.272583,402.963379 
	C428.382538,402.543549 428.559265,402.487793 428.481140,402.537598 
	C428.973419,402.860046 429.428741,402.730011 429.647400,401.808624 
	C429.525940,401.420319 429.451752,401.728851 429.471008,401.571228 
	C430.631409,401.740692 430.964996,400.748413 431.474854,399.831238 
	C431.405884,399.505768 431.514130,399.538300 431.462128,399.560425 
	C431.963470,399.874512 432.406158,399.755463 432.670105,398.832367 
	C432.602020,398.439606 432.631409,398.643982 432.528381,398.650635 
	C432.987885,398.859741 433.431854,398.710236 433.671875,397.824951 
	C433.586578,397.441345 433.615143,397.633484 433.518188,397.639435 
	C433.996460,397.845032 434.451691,397.690735 434.658447,396.801941 
	C434.529938,396.421356 434.535431,396.557281 434.467834,396.549866 
	C435.516907,397.129242 435.361084,396.128021 435.801575,395.328491 
	C436.021912,395.060974 436.005035,395.003540 436.033569,395.012634 
	C436.603058,394.591278 437.160339,394.178436 437.793274,393.344330 
z"/>
<path fill="#15A1FB" opacity="1.000000" stroke="none" 
	d="
M369.148712,532.218262 
	C354.858307,532.624573 340.767456,532.684265 326.200287,532.641663 
	C325.118408,532.497559 324.509644,532.509399 323.678589,532.230469 
	C313.646484,530.393494 312.501953,517.768494 318.503723,512.041382 
	C330.043915,501.029297 341.074768,489.483551 352.639069,478.061584 
	C357.418976,477.778381 358.690125,480.437317 358.478058,484.276520 
	C358.148041,490.251099 358.056793,496.195160 359.998291,502.334045 
	C360.519531,503.663269 360.284393,504.723785 360.554169,505.943970 
	C360.918335,506.380981 361.229797,506.513062 361.900146,506.620453 
	C366.946106,506.990143 371.755096,505.915588 376.688293,507.898010 
	C378.657288,511.657257 376.450287,512.644836 373.698975,513.084778 
	C371.079651,513.503601 368.411316,513.354248 365.765289,513.377747 
	C362.030884,513.411011 360.333679,515.279785 360.377197,518.940247 
	C360.394897,520.429138 360.390350,521.919678 360.380188,523.408813 
	C360.358795,526.541443 361.703857,528.397278 364.963287,528.746521 
	C366.955505,528.959900 369.018463,529.247070 369.148712,532.218262 
z"/>
<path fill="#15A1FB" opacity="1.000000" stroke="none" 
	d="
M352.280029,296.175842 
	C338.930756,283.389771 325.926178,270.518921 312.964752,257.604736 
	C309.377289,254.030380 308.844910,249.611237 310.616333,245.141983 
	C312.511810,240.359894 316.428680,238.000381 321.588135,237.991302 
	C335.738159,237.966415 349.888306,238.004562 364.500275,238.085800 
	C364.667725,241.580307 361.897736,241.013306 359.775757,241.231140 
	C353.313232,241.894562 352.435364,242.649429 352.369965,249.088867 
	C352.336487,252.383026 351.720276,255.653702 352.180725,259.306885 
	C352.498596,261.404602 353.515381,262.489838 354.921997,263.496368 
	C356.969666,264.961609 358.425568,266.885864 357.673706,270.034027 
	C354.219696,273.673370 355.110077,277.779602 355.728851,281.586761 
	C356.271423,284.924957 355.874817,288.160095 355.747711,291.430542 
	C355.667755,293.487946 354.776855,295.263977 352.280029,296.175842 
z"/>
<path fill="#6D3EFB" opacity="1.000000" stroke="none" 
	d="
M514.178101,351.250183 
	C515.244324,349.946259 517.024597,349.457672 516.580139,347.205902 
	C514.905579,338.722260 517.189148,330.146210 516.090576,321.201355 
	C521.893066,326.430908 527.742310,332.035980 533.447876,337.783722 
	C542.477661,346.880371 553.197327,352.021759 566.575623,352.267029 
	C569.933411,353.208527 571.257874,355.135681 571.236206,358.193939 
	C571.212952,361.478027 571.695618,364.739014 571.968201,368.009277 
	C572.437561,373.638885 571.057068,374.943542 565.358032,374.997650 
	C564.207642,375.008575 563.057068,374.998993 561.461792,375.009949 
	C545.333191,374.117493 531.834656,368.110992 520.316040,357.535614 
	C518.237305,355.627167 516.311096,353.552551 514.178101,351.250183 
z"/>
<path fill="#A302FC" opacity="1.000000" stroke="none" 
	d="
M670.904663,268.203308 
	C671.845520,265.270447 675.573364,264.550751 675.335022,261.036438 
	C674.338440,255.370865 676.437866,249.953934 675.667236,244.389023 
	C675.409302,242.526260 674.783203,240.440094 676.692688,238.444550 
	C686.479553,238.094162 695.969482,237.945007 705.457275,238.028702 
	C710.207092,238.070602 713.733032,240.552872 715.678223,244.823669 
	C717.630371,249.109695 717.284424,253.599716 714.005981,256.961517 
	C703.787476,267.439789 693.327332,277.684448 682.853577,287.909729 
	C680.847778,289.867950 678.697388,291.650665 676.882080,294.205750 
	C673.691345,293.731232 673.680725,291.398926 674.077454,289.296906 
	C675.008057,284.366058 674.268860,279.386993 674.788513,274.480377 
	C675.130798,271.248016 673.802734,269.572083 670.904663,268.203308 
z"/>
<path fill="#5458F9" opacity="1.000000" stroke="none" 
	d="
M509.708740,422.935120 
	C514.000244,425.399902 517.122131,428.840179 520.350830,432.141815 
	C526.501282,438.431000 526.560669,444.573395 520.380859,450.822418 
	C509.173584,462.155151 497.856781,473.379578 486.282166,484.781342 
	C485.582184,484.614777 485.270905,484.714478 485.289551,485.290314 
	C485.554596,485.463104 485.532471,485.580231 485.472900,485.581573 
	C482.135254,485.843414 480.918335,483.944580 480.847626,481.052246 
	C480.664917,473.581635 480.083618,466.098236 481.370605,458.221497 
	C480.953522,455.054138 482.262726,453.072357 484.070374,451.229340 
	C487.526978,447.705139 491.096252,444.291565 494.714111,440.399139 
	C498.281921,437.908020 500.059784,434.545776 501.885712,431.156891 
	C503.671234,427.843079 505.257874,424.236572 509.708740,422.935120 
z"/>
<path fill="#416FFA" opacity="1.000000" stroke="none" 
	d="
M466.200867,504.538574 
	C456.405975,515.282104 446.894806,525.707092 432.363708,529.976562 
	C426.583405,529.741455 426.052643,529.248657 425.762207,523.993103 
	C425.544739,520.057434 426.033478,516.049744 424.116272,512.320251 
	C423.582520,511.281982 424.022522,510.043701 424.918518,508.692749 
	C425.300140,508.142700 425.442596,507.918396 425.796265,507.359131 
	C426.653931,506.229980 427.494537,505.637360 428.472107,504.645538 
	C439.160065,497.649261 446.833191,487.931519 455.726166,479.539368 
	C457.171021,478.175842 458.478088,476.653534 460.087830,475.481476 
	C461.652557,474.342163 463.327576,473.758301 465.304260,475.583618 
	C466.617493,485.303589 468.799652,494.659515 466.200867,504.538574 
z"/>
<path fill="#416FFA" opacity="1.000000" stroke="none" 
	d="
M430.625244,242.267853 
	C437.988922,244.171432 443.720306,248.338776 448.892395,253.309555 
	C453.680420,257.911194 458.297211,262.690979 463.152527,267.699341 
	C461.269226,270.872528 461.290131,274.177612 461.290802,277.483429 
	C461.291931,283.098694 461.693939,288.756775 459.342590,294.473816 
	C457.387573,296.273743 455.570343,295.871521 454.168152,294.554657 
	C445.605133,286.512817 437.244659,278.262451 429.278656,269.622833 
	C428.713501,269.009888 428.548889,268.152100 428.462433,266.904907 
	C426.288605,259.632019 428.357697,252.583740 427.566406,245.644135 
	C427.385437,244.057037 428.831268,243.096466 430.625244,242.267853 
z"/>
<path fill="#2192FA" opacity="1.000000" stroke="none" 
	d="
M352.051514,296.573151 
	C353.662506,291.596893 354.160858,286.854126 353.318726,281.864685 
	C352.830292,278.970886 353.067200,275.948883 353.044403,272.984070 
	C353.026398,270.639587 353.983612,269.169678 356.961761,269.400879 
	C357.510773,269.371521 357.706268,269.357422 358.200439,269.354401 
	C358.698456,269.407379 358.897797,269.449310 359.682556,269.719025 
	C360.656464,270.146271 361.033813,270.365143 361.695679,270.784760 
	C369.416473,277.092346 375.811310,284.281433 382.651337,291.010223 
	C384.409302,292.739502 386.384094,294.468536 385.189575,297.720856 
	C382.247345,299.661469 381.497955,301.878265 382.014679,305.102539 
	C382.872162,310.453003 381.855042,315.953125 382.891144,321.341064 
	C383.147308,322.673065 382.621582,323.939545 381.257751,325.089783 
	C371.337830,315.795410 361.760925,306.332336 352.051514,296.573151 
z"/>
<path fill="#7B2EFB" opacity="1.000000" stroke="none" 
	d="
M605.325684,262.490051 
	C593.755493,267.272339 587.232849,277.307068 578.378174,285.076080 
	C576.230408,284.849792 575.257141,283.356415 574.582458,281.940948 
	C570.826843,274.062012 570.549133,265.970428 573.774780,257.424438 
	C581.235657,248.452728 590.343994,242.810181 601.579590,239.936737 
	C604.103943,240.025940 606.292358,240.768326 606.574768,242.902817 
	C607.425171,249.330490 608.641418,255.858597 605.325684,262.490051 
z"/>
<path fill="#357CF9" opacity="1.000000" stroke="none" 
	d="
M433.098419,344.736694 
	C430.046997,344.035126 429.180756,345.076538 428.928162,348.006042 
	C428.301086,355.277588 430.902832,362.465454 429.197113,369.765442 
	C428.667938,372.030151 431.446716,373.348267 431.847412,375.893066 
	C422.659790,367.130859 413.420227,357.998535 404.041687,348.572632 
	C402.093994,344.824158 401.525635,341.137238 401.624603,337.264709 
	C401.725708,333.309082 401.652740,329.356659 401.032227,325.416901 
	C400.699402,323.303894 400.702087,321.102539 403.520691,318.675476 
	C405.207367,317.783142 405.756897,317.630829 406.731628,317.543213 
	C409.271942,317.778259 410.782196,319.106659 412.200562,320.528564 
	C418.438171,326.781647 424.768250,332.942474 430.932404,339.268372 
	C432.317841,340.690094 433.858887,342.105011 433.098419,344.736694 
z"/>
<path fill="#8623FC" opacity="1.000000" stroke="none" 
	d="
M598.761841,340.133118 
	C607.639832,330.877350 616.400024,322.016846 625.460571,313.022827 
	C630.121887,312.694489 631.260376,315.656769 630.896118,319.002899 
	C630.425232,323.327637 630.563354,327.540009 631.100830,331.823853 
	C631.843201,337.740692 627.362732,341.335999 624.500549,346.107727 
	C624.411865,346.540222 624.403625,346.395996 624.475708,346.400787 
	C623.066711,346.254059 623.167725,347.790405 622.193115,348.654297 
	C616.785522,355.220978 610.513855,360.304657 603.411804,364.935699 
	C600.108582,365.951721 597.591675,365.031738 597.842102,361.831726 
	C598.397766,354.730835 598.335449,347.626282 598.761841,340.133118 
z"/>
<path fill="#9017FB" opacity="1.000000" stroke="none" 
	d="
M624.698364,346.354614 
	C630.201904,337.733978 627.521057,327.618683 628.757080,318.111664 
	C629.011597,316.154510 627.486816,314.772156 626.034851,313.131378 
	C634.261902,304.274017 642.762817,295.658752 651.572388,286.901550 
	C654.786316,286.796661 656.689087,288.260010 656.946411,291.112244 
	C657.599365,298.350403 656.037415,305.526581 656.082703,312.760925 
	C656.091370,314.143616 654.710205,314.960754 654.033813,316.562256 
	C646.285034,325.010895 638.673340,333.054962 630.298767,340.341156 
	C628.328613,342.055237 626.745850,344.214508 624.698364,346.354614 
z"/>
<path fill="#6D3EFB" opacity="1.000000" stroke="none" 
	d="
M573.709595,257.212341 
	C574.309875,266.351471 572.903625,275.870056 578.028564,284.831421 
	C571.262390,292.127686 564.456726,299.037781 557.369263,306.144104 
	C549.811096,304.590027 542.351807,296.491882 541.875610,289.331604 
	C552.472107,278.433197 562.939453,267.888733 573.709595,257.212341 
z"/>
<path fill="#2192FA" opacity="1.000000" stroke="none" 
	d="
M359.429962,504.371338 
	C355.213837,498.702728 355.636200,492.361725 356.152557,486.208466 
	C356.427765,482.928619 355.808350,480.521790 353.203033,478.198303 
	C362.954010,467.923706 372.946808,457.883392 383.203308,447.640625 
	C387.351379,449.071594 385.790314,452.270203 384.931061,454.525574 
	C382.653870,460.502716 383.593933,466.642670 383.236023,472.715698 
	C383.154327,474.101410 383.570496,475.329529 384.755035,476.653839 
	C386.410095,478.994781 385.611908,480.794861 384.168732,482.332428 
	C377.453674,489.486877 370.424927,496.332123 363.399017,503.178314 
	C362.415039,504.137115 361.222626,504.701324 359.429962,504.371338 
z"/>
<path fill="#7B2EFB" opacity="1.000000" stroke="none" 
	d="
M598.564209,339.872375 
	C602.640015,346.766632 600.724792,354.234863 600.129700,361.465393 
	C599.910889,364.124176 601.283081,364.003571 602.790466,364.921844 
	C590.554138,373.471680 576.622375,376.222595 561.396729,375.146057 
	C562.120483,374.135956 563.455017,373.825928 564.759583,374.041962 
	C569.012573,374.746307 570.346252,372.154449 569.575928,368.918213 
	C568.322754,363.653442 570.663513,357.918396 567.163696,352.682800 
	C578.937012,352.065399 589.419983,348.127869 598.564209,339.872375 
z"/>
<path fill="#357CF9" opacity="1.000000" stroke="none" 
	d="
M428.120667,402.730225 
	C429.944916,404.603912 430.401733,406.773376 430.166077,409.464325 
	C429.762695,414.070709 430.118652,418.738434 429.979950,423.375183 
	C429.902802,425.954163 431.278625,427.737518 432.895050,429.900269 
	C434.053711,432.532440 432.574829,433.974640 431.200989,435.403625 
	C425.372437,441.466156 419.371857,447.358093 413.384674,453.262634 
	C411.838409,454.787537 410.195557,456.194244 407.395508,455.559143 
	C403.452972,452.973389 402.657135,449.729919 403.277679,445.473846 
	C404.007507,440.468323 404.751648,435.213074 401.052307,430.343079 
	C409.929626,420.943970 418.894226,411.930450 428.120667,402.730225 
z"/>
<path fill="#2C87FA" opacity="1.000000" stroke="none" 
	d="
M400.642792,430.056519 
	C404.594879,429.793396 405.948425,431.845947 405.964569,435.144012 
	C405.979828,438.259338 406.493591,441.504059 405.797394,444.458405 
	C404.880463,448.349487 405.741302,451.470337 408.001770,454.876648 
	C408.945648,457.351288 407.583679,458.774109 406.383881,460.080444 
	C401.113464,465.818970 395.416351,471.138916 389.896729,476.633057 
	C388.823059,477.701782 387.527435,478.453949 385.564819,478.220642 
	C381.631744,478.018341 377.558380,478.470123 380.677155,472.628967 
	C381.311096,471.441650 381.181580,469.664795 380.954865,468.230682 
	C379.858459,461.294342 382.944550,454.953583 383.547180,447.859283 
	C383.467041,447.438171 383.481476,447.425415 383.488403,447.418823 
	C384.598267,447.684875 384.978424,446.766541 385.492798,445.841919 
	C385.434814,445.518860 385.498566,445.575256 385.459991,445.593231 
	C385.990845,445.846191 386.442932,445.704987 386.632782,444.813782 
	C386.487854,444.439606 386.516479,444.542633 386.463165,444.546692 
	C386.969147,444.860260 387.419067,444.744598 387.632446,443.818085 
	C387.505402,443.432709 387.538208,443.556366 387.474579,443.562927 
	C387.970673,443.862244 388.419006,443.741516 388.641205,442.820801 
	C388.526489,442.434448 388.558472,442.575348 388.486511,442.581879 
	C388.974701,442.861328 389.421539,442.734772 389.646667,441.823212 
	C389.538361,441.438080 389.568024,441.585205 389.493195,441.590698 
	C389.978577,441.858612 390.424683,441.728882 390.647369,440.823578 
	C390.538025,440.440277 390.567230,440.586975 390.492615,440.592285 
	C390.985809,440.849121 391.437775,440.713898 391.638550,439.812866 
	C391.503143,439.434052 391.887024,439.517914 391.699219,439.459656 
	C393.041016,439.739166 392.987701,438.288635 393.789185,437.332520 
	C396.104797,434.782440 398.212677,432.468994 400.642792,430.056519 
z"/>
<path fill="#2C87FA" opacity="1.000000" stroke="none" 
	d="
M405.405121,318.474670 
	C403.398651,320.463898 402.707764,322.256531 403.165680,324.399353 
	C404.787811,331.990753 403.715179,339.669952 403.923645,347.792664 
	C396.325317,340.805573 388.747955,333.332123 381.042633,325.558594 
	C379.020538,317.488403 381.111572,309.390259 378.645691,301.562866 
	C377.410431,297.641846 381.347382,297.456329 384.505005,297.027008 
	C385.181152,296.707642 385.539093,296.563202 386.265320,296.711792 
	C386.913361,296.990753 387.247375,297.209808 387.768921,297.658081 
	C388.112152,297.980560 388.241119,298.113892 388.547760,298.450500 
	C388.836487,298.787933 388.947571,298.922150 389.377106,299.442047 
	C389.695557,299.827728 390.015015,300.189880 390.350281,300.524292 
	C390.685547,300.858673 391.047760,301.165314 391.443726,301.447021 
	C391.984741,301.817688 392.129761,301.906677 392.743011,302.264282 
	C393.545654,302.726105 393.875305,302.927216 394.478912,303.290100 
	C398.726959,307.130615 403.039093,310.497131 405.895935,315.637451 
	C406.021362,316.190155 406.047974,316.415314 406.047241,316.976685 
	C405.949219,317.524384 405.878540,317.735809 405.405121,318.474670 
z"/>
<path fill="#9B0BFD" opacity="1.000000" stroke="none" 
	d="
M654.224731,316.836731 
	C654.507935,310.834381 653.436890,304.641846 654.578247,298.494232 
	C655.308777,294.559326 655.825745,290.515259 652.120361,287.052887 
	C657.964905,280.561707 664.048828,274.363739 670.431824,268.034332 
	C673.365112,268.226898 675.019104,266.545654 677.633240,264.978638 
	C677.212158,274.485535 676.791077,283.992401 676.490479,293.943481 
	C676.610962,294.387634 676.599426,294.362000 676.590088,294.367218 
	C676.026917,294.154724 675.583313,294.292267 675.328003,295.167786 
	C675.406189,295.550354 675.383179,295.365234 675.476379,295.361969 
	C675.020020,295.131439 674.585693,295.268646 674.326721,296.152527 
	C674.386841,296.534515 674.363647,296.344971 674.459045,296.341278 
	C674.006348,296.142120 673.574341,296.288605 673.320557,297.154846 
	C673.382751,297.532318 673.359009,297.336792 673.457397,297.332672 
	C673.006409,297.140594 672.573730,297.290131 672.313354,298.155975 
	C672.368958,298.534698 672.347229,298.328369 672.450928,298.325012 
	C672.005066,298.140839 671.572510,298.292786 671.311279,299.156189 
	C671.365662,299.534637 671.342041,299.321136 671.449341,299.316711 
	C670.991577,299.156891 670.546387,299.322998 670.334106,300.185425 
	C670.447205,300.560455 670.420288,300.399963 670.501526,300.395569 
	C670.021729,300.138794 669.575745,300.271973 669.339966,301.176819 
	C669.434937,301.563019 669.431885,301.417145 669.504395,301.425110 
	C668.527344,300.964752 668.616333,301.851532 668.198792,302.649231 
	C664.118835,308.103577 658.227173,311.327667 654.224731,316.836731 
z"/>
<path fill="#8623FC" opacity="1.000000" stroke="none" 
	d="
M605.379639,262.838654 
	C604.988220,257.605927 604.953247,252.366760 605.004395,247.128464 
	C605.029541,244.554535 604.507202,242.252487 602.214233,240.230591 
	C609.829590,237.093063 618.009521,238.194580 626.549805,238.076859 
	C627.478027,238.485611 627.996277,238.508926 628.767761,238.279694 
	C631.035889,238.100464 633.071777,238.052841 635.538818,238.075348 
	C637.195251,239.092041 637.962646,240.267853 638.092896,241.870636 
	C638.480347,246.635834 638.412170,251.395813 638.111755,256.161560 
	C637.997681,257.970398 637.021057,259.203705 635.335205,260.600586 
	C626.042725,261.741455 617.010376,260.139557 608.128418,262.060577 
	C607.324768,262.234375 606.556396,262.571350 605.379639,262.838654 
z"/>
<path fill="#357CF9" opacity="1.000000" stroke="none" 
	d="
M430.638977,241.939499 
	C430.492126,243.089462 429.419067,244.219925 429.577240,245.138367 
	C430.801392,252.247223 429.226685,259.374756 429.906860,266.871826 
	C428.165009,268.774963 426.519623,267.804108 424.850311,267.090118 
	C419.809174,264.933899 414.617493,263.377869 408.700867,263.184875 
	C406.517212,263.014740 404.710114,263.015656 402.502075,262.777924 
	C401.532410,262.567810 401.011475,262.335449 400.185883,261.736877 
	C395.216522,254.428467 395.444122,243.659164 400.669403,238.442856 
	C410.971191,237.762085 420.926910,237.406311 430.638977,241.939499 
z"/>
<path fill="#4D62FB" opacity="1.000000" stroke="none" 
	d="
M463.288513,400.179901 
	C462.646118,389.953064 462.322083,379.915314 461.996857,369.414673 
	C461.355560,367.200500 461.857391,365.674316 463.063904,364.398193 
	C467.593231,359.607574 472.265320,354.957062 477.059021,350.431152 
	C478.057098,349.488831 479.291626,349.048218 481.034973,349.465302 
	C484.911041,354.809326 484.049500,360.709412 483.949768,366.433502 
	C483.889893,369.867493 484.246735,373.003479 486.959351,375.874725 
	C483.462280,379.951355 479.842499,383.671173 476.031738,387.668518 
	C474.201416,394.488556 469.484375,398.000153 463.288513,400.179901 
z"/>
<path fill="#4D62FB" opacity="1.000000" stroke="none" 
	d="
M457.806152,295.218445 
	C458.391357,287.819611 459.647858,280.795288 458.676849,273.617737 
	C458.365448,271.315796 459.515076,268.685883 462.941711,268.035828 
	C463.703857,268.042358 463.913788,268.255127 463.736694,268.774597 
	C463.999847,269.111908 464.402100,269.412384 464.912964,270.142365 
	C470.851257,273.917236 474.573639,279.539886 479.681854,284.174622 
	C477.963379,285.260895 476.799835,285.964661 477.402435,288.781036 
	C479.144806,296.924469 478.878937,305.189697 477.180084,313.711914 
	C475.404449,314.967346 473.976318,314.411377 472.858856,313.351227 
	C467.910492,308.656647 462.917450,303.998718 458.475006,298.805298 
	C457.702667,297.902344 457.355469,296.767303 457.806152,295.218445 
z"/>
<path fill="#4D62FB" opacity="1.000000" stroke="none" 
	d="
M466.267456,504.782104 
	C465.288422,495.181366 464.612427,485.442871 463.916138,475.226898 
	C463.167908,473.138947 463.770111,471.757385 464.848175,470.641815 
	C469.477844,465.851166 474.038940,460.988708 478.985168,456.515350 
	C479.883209,455.703156 480.981964,455.332794 482.559631,455.606201 
	C482.936798,463.710938 482.959717,471.678162 483.011383,479.645172 
	C483.024139,481.612335 482.739044,483.699860 485.049377,485.333710 
	C479.132355,491.936707 472.851440,498.290527 466.267456,504.782104 
z"/>
<path fill="#2192FA" opacity="1.000000" stroke="none" 
	d="
M369.412933,532.665161 
	C367.286438,530.111023 364.727295,531.072449 362.543304,531.059998 
	C359.479095,531.042480 357.868042,530.019287 357.978699,526.726746 
	C358.101196,523.081665 358.068237,519.428101 357.990326,515.780579 
	C357.918671,512.426270 359.482941,511.121674 362.799194,510.945160 
	C367.370911,510.701813 372.052185,511.991760 376.749115,509.805908 
	C377.697754,507.107910 379.742157,506.879150 381.731445,506.812500 
	C387.323029,506.625122 392.925629,506.259064 398.892212,507.398560 
	C401.015289,511.006134 400.502808,512.386353 397.088837,513.036804 
	C394.644531,513.502441 392.136841,513.300049 389.657928,513.393311 
	C386.822571,513.499878 385.440948,514.941467 385.380524,517.753113 
	C385.348572,519.242371 385.313843,520.731506 385.332123,522.220520 
	C385.402924,527.987244 385.784180,528.278870 391.504700,528.730103 
	C394.095001,528.934387 397.440979,527.913574 398.148499,532.232849 
	C388.588745,532.630859 379.232697,532.698120 369.412933,532.665161 
z"/>
<path fill="#2192FA" opacity="1.000000" stroke="none" 
	d="
M350.565399,261.317139 
	C349.131866,254.582565 349.544006,248.143356 351.190308,241.817825 
	C351.760162,239.628433 353.702148,239.034882 355.891541,238.985138 
	C358.677917,238.921829 361.504028,239.400665 364.605103,238.341949 
	C371.323090,238.106659 377.683990,238.059494 384.506958,238.080673 
	C385.168182,240.461227 383.408325,240.731583 381.817841,241.122101 
	C380.551636,241.433014 379.184998,241.439301 378.242920,242.560120 
	C376.421204,244.727432 377.038940,256.013000 379.196014,257.940002 
	C380.426300,259.039093 382.101685,259.803864 380.456726,262.144073 
	C370.377319,263.623016 360.616516,264.700500 350.565399,261.317139 
z"/>
<path fill="#533DBF" opacity="1.000000" stroke="none" 
	d="
M541.695618,289.109314 
	C545.290833,295.979614 551.165039,300.714569 556.891724,306.045227 
	C551.294861,312.104492 545.502319,317.868683 539.397217,323.838562 
	C533.644409,318.976929 526.861450,315.183167 523.858521,307.535889 
	C529.763123,301.199921 535.574768,295.220459 541.695618,289.109314 
z"/>
<path fill="#2C87FA" opacity="1.000000" stroke="none" 
	d="
M381.282654,261.375000 
	C375.444397,260.609985 372.564178,258.423096 374.963623,252.407913 
	C375.248993,251.692535 375.005035,250.765884 375.006012,249.937164 
	C375.017700,239.952332 375.017670,239.952332 384.617065,238.338394 
	C390.007294,238.101776 395.045593,238.054535 400.548096,238.075241 
	C398.374908,245.468277 398.338104,252.830078 400.857544,260.581482 
	C400.457275,262.026672 399.576569,262.850739 398.378357,262.906799 
	C392.736572,263.170776 387.009705,264.531952 381.282654,261.375000 
z"/>
<path fill="#163D81" opacity="1.000000" stroke="none" 
	d="
M462.826721,400.264404 
	C467.057220,396.057617 471.144287,392.124481 475.536072,388.068695 
	C480.883911,392.898193 485.927094,397.850311 491.006897,403.116089 
	C491.975128,405.003113 492.057068,406.754150 490.886444,408.039886 
	C486.634094,412.710205 483.473633,418.388947 477.703461,422.108337 
	C475.561737,422.351288 474.154938,421.599701 472.899872,420.455353 
	C468.903748,416.811737 465.194244,412.879883 461.407532,409.025879 
	C460.196381,407.793182 459.525391,406.358917 459.900513,404.198608 
	C460.830017,402.724365 461.756622,401.631165 462.826721,400.264404 
z"/>
<path fill="#2C87FA" opacity="1.000000" stroke="none" 
	d="
M398.406860,532.661865 
	C394.676056,529.518677 390.677460,531.263367 387.045624,531.110779 
	C383.406403,530.957947 382.038147,530.197144 382.731720,526.159729 
	C383.368469,522.453003 383.178680,518.518616 382.776642,514.745911 
	C382.448792,511.669128 383.620026,511.103668 386.291962,510.946838 
	C390.702606,510.687927 395.226868,512.007874 399.756744,509.809723 
	C400.696198,507.116364 402.729797,506.925629 404.714966,506.809601 
	C408.320831,506.598785 411.934448,506.450836 415.907104,507.405365 
	C419.000488,510.406158 417.452271,512.090332 414.614624,512.925476 
	C411.987823,513.698547 408.512909,513.374023 408.540344,517.263184 
	C408.570740,521.575562 406.420227,526.689331 412.060272,529.485596 
	C412.964386,529.933838 413.428467,530.874512 413.156250,532.288818 
	C408.250732,532.663025 403.559845,532.711609 398.406860,532.661865 
z"/>
<path fill="#9017FB" opacity="1.000000" stroke="none" 
	d="
M635.435303,261.018433 
	C636.682251,253.708435 635.770203,246.360291 635.975464,238.604645 
	C640.015747,238.098999 644.061523,238.052536 648.567505,238.077789 
	C651.771423,239.031799 654.631470,238.175949 657.428467,238.784058 
	C660.809326,239.519104 662.354187,241.463928 661.903442,244.795593 
	C661.498901,247.786087 661.449646,250.709656 661.837463,253.718460 
	C662.474121,258.657959 660.831055,260.375061 655.824097,260.495483 
	C653.830078,260.543427 651.833984,260.446930 649.425842,260.743164 
	C644.639893,260.987518 640.268188,261.044189 635.435303,261.018433 
z"/>
<path fill="#2F74E6" opacity="1.000000" stroke="none" 
	d="
M413.387726,532.717041 
	C412.750671,532.347107 412.583862,532.057983 412.364990,531.815918 
	C410.716492,529.992554 406.647491,532.245850 406.311249,528.785217 
	C405.788269,523.403198 405.482086,517.922974 406.557220,512.564941 
	C406.903870,510.837280 408.929260,511.201874 410.376373,511.040344 
	C412.442047,510.809814 414.696930,511.710510 416.748901,509.754089 
	C419.202332,505.881378 422.277191,505.286255 426.303680,507.284027 
	C424.893341,511.710602 429.139984,515.017639 428.044647,519.100220 
	C427.594971,520.776184 428.088959,522.683594 427.948914,524.469604 
	C427.739716,527.138245 428.726044,528.877258 431.677368,529.774780 
	C426.158813,532.349731 420.018127,532.723816 413.387726,532.717041 
z"/>
<path fill="#9B0BFD" opacity="1.000000" stroke="none" 
	d="
M649.473267,261.011353 
	C650.936768,259.603943 653.142334,260.033081 655.250610,259.996002 
	C658.616333,259.936798 660.257629,258.237488 659.645325,254.993622 
	C658.961487,251.370544 658.812744,247.851120 659.631653,244.235840 
	C660.363159,241.006531 658.200500,239.765350 655.553955,239.229492 
	C653.635254,238.840988 651.657043,238.746780 649.366577,238.335403 
	C655.051880,238.102493 661.076050,238.055511 667.565430,238.080673 
	C669.782104,238.844208 671.597473,238.385681 673.687439,238.300034 
	C674.743408,238.101044 675.495605,238.052948 676.619202,238.076004 
	C678.324524,243.530869 678.041504,249.009491 677.933533,254.475586 
	C677.888489,256.754578 676.709656,258.565643 675.201904,260.605652 
	C666.650757,260.967957 658.292908,261.029907 649.473267,261.011353 
z"/>
<path fill="#2F74E6" opacity="1.000000" stroke="none" 
	d="
M476.364075,421.356812 
	C481.789612,415.815125 486.679291,410.298767 490.919556,403.777679 
	C494.217560,406.436523 497.391632,409.443298 500.705811,412.746765 
	C501.909363,415.530365 501.595215,417.697083 499.913635,419.944092 
	C498.045593,422.440216 496.378662,425.104553 494.630005,427.699005 
	C492.996796,430.122192 490.787628,431.739288 487.383240,432.108459 
	C481.547821,430.623322 478.099548,426.998688 476.364075,421.356812 
z"/>
<path fill="#4D62FB" opacity="1.000000" stroke="none" 
	d="
M486.781128,431.591064 
	C493.692383,427.095581 497.192017,420.437805 500.666626,413.333069 
	C504.121399,415.831970 507.295044,418.719238 509.927002,422.570557 
	C506.944702,427.891724 503.834869,432.909576 500.706543,437.915863 
	C499.831726,439.315765 498.987854,440.784790 496.729095,440.973480 
	C491.835938,440.481689 488.000336,436.917847 486.781128,431.591064 
z"/>
<path fill="#163D81" opacity="1.000000" stroke="none" 
	d="
M523.658813,307.296143 
	C528.720764,312.756561 536.095032,315.878967 539.058228,323.613556 
	C538.115112,325.129944 537.107361,326.184265 536.183716,327.307709 
	C534.002075,329.961182 532.588379,329.588562 530.062744,327.082245 
	C525.812927,322.864990 520.362000,319.879700 516.909912,314.307922 
	C518.959229,311.800568 521.162720,309.606720 523.658813,307.296143 
z"/>
<path fill="#A302FC" opacity="1.000000" stroke="none" 
	d="
M673.569214,238.080322 
	C672.267578,239.210815 670.473145,239.207809 668.331421,238.329330 
	C669.736206,238.105713 671.441711,238.058594 673.569214,238.080322 
z"/>
<path fill="#2192FA" opacity="1.000000" stroke="none" 
	d="
M393.729797,437.200562 
	C393.854858,438.243256 393.692047,439.374786 391.845337,439.438110 
	C392.161865,438.702698 392.812286,438.003998 393.729797,437.200562 
z"/>
<path fill="#357CF9" opacity="1.000000" stroke="none" 
	d="
M431.184174,399.663300 
	C431.507874,400.483795 431.343140,401.291809 429.827332,401.433533 
	C429.981018,400.882690 430.471741,400.351746 431.184174,399.663300 
z"/>
<path fill="#9017FB" opacity="1.000000" stroke="none" 
	d="
M622.260803,348.791534 
	C622.232422,347.793274 622.676025,346.839233 624.223083,346.458923 
	C623.880066,347.165161 623.212402,347.924744 622.260803,348.791534 
z"/>
<path fill="#2192FA" opacity="1.000000" stroke="none" 
	d="
M385.210205,445.672729 
	C385.515717,446.492889 385.336548,447.296173 383.831299,447.430817 
	C383.992096,446.883698 384.488831,446.355133 385.210205,445.672729 
z"/>
<path fill="#2F74E6" opacity="1.000000" stroke="none" 
	d="
M323.643250,532.179443 
	C324.081879,532.100281 324.712738,532.171143 325.533813,532.390686 
	C325.094513,532.469421 324.465027,532.399475 323.643250,532.179443 
z"/>
<path fill="#357CF9" opacity="1.000000" stroke="none" 
	d="
M437.740540,393.173462 
	C437.542725,393.657135 437.078064,394.241791 436.337769,394.924072 
	C436.532623,394.439301 437.003174,393.856903 437.740540,393.173462 
z"/>
<path fill="#357CF9" opacity="1.000000" stroke="none" 
	d="
M435.756592,395.155548 
	C435.670776,395.503265 435.319611,395.945496 434.684326,396.465118 
	C434.763885,396.111694 435.127533,395.680878 435.756592,395.155548 
z"/>
<path fill="#A302FC" opacity="1.000000" stroke="none" 
	d="
M668.238647,302.805725 
	C668.323792,302.462555 668.673157,302.029144 669.299683,301.514404 
	C669.218872,301.860565 668.860840,302.288025 668.238647,302.805725 
z"/>
<path fill="#9017FB" opacity="1.000000" stroke="none" 
	d="
M628.671387,238.080811 
	C628.458191,238.236954 627.916321,238.325806 627.194458,238.281067 
	C627.457214,238.102798 627.899963,238.058167 628.671387,238.080811 
z"/>
<path fill="#2192FA" opacity="1.000000" stroke="none" 
	d="
M386.266602,444.592255 
	C386.296021,444.744720 386.104187,445.049835 385.666901,445.483093 
	C385.629425,445.322449 385.837402,445.033691 386.266602,444.592255 
z"/>
<path fill="#4D62FB" opacity="1.000000" stroke="none" 
	d="
M485.709595,485.363525 
	C485.437378,485.184784 485.499908,484.987030 485.860413,484.891663 
	C485.978638,484.913483 485.864624,485.263916 485.709595,485.363525 
z"/>
<path fill="#2192FA" opacity="1.000000" stroke="none" 
	d="
M387.283813,443.577972 
	C387.306519,443.729279 387.107635,444.025848 386.659302,444.436584 
	C386.627319,444.274933 386.844757,443.999084 387.283813,443.577972 
z"/>
<path fill="#2192FA" opacity="1.000000" stroke="none" 
	d="
M388.299103,442.579590 
	C388.322571,442.733978 388.118622,443.033478 387.662842,443.451233 
	C387.631226,443.287903 387.851471,443.006348 388.299103,442.579590 
z"/>
<path fill="#2192FA" opacity="1.000000" stroke="none" 
	d="
M389.307007,441.583160 
	C389.331970,441.739807 389.125549,442.041504 388.666870,442.465820 
	C388.634918,442.301666 388.855286,442.014954 389.307007,441.583160 
z"/>
<path fill="#2192FA" opacity="1.000000" stroke="none" 
	d="
M391.279053,439.584656 
	C391.306458,439.737915 391.109772,440.041748 390.665527,440.471558 
	C390.630310,440.310120 390.842621,440.022675 391.279053,439.584656 
z"/>
<path fill="#2192FA" opacity="1.000000" stroke="none" 
	d="
M390.306396,440.585632 
	C390.332581,440.742859 390.127106,441.045410 389.670044,441.472107 
	C389.637177,441.307800 389.855957,441.019409 390.306396,440.585632 
z"/>
<path fill="#357CF9" opacity="1.000000" stroke="none" 
	d="
M429.295532,401.569855 
	C429.322815,401.728516 429.119720,402.036743 428.659790,402.466156 
	C428.623688,402.298065 428.844421,402.008728 429.295532,401.569855 
z"/>
<path fill="#416FFA" opacity="1.000000" stroke="none" 
	d="
M465.054749,270.041443 
	C464.785767,270.085236 464.480347,269.691772 463.851440,269.101440 
	C464.024750,269.137787 464.521545,269.371002 465.054749,270.041443 
z"/>
<path fill="#A302FC" opacity="1.000000" stroke="none" 
	d="
M675.651611,295.408203 
	C675.627014,295.245697 675.847900,294.941071 676.324707,294.504425 
	C676.352844,294.670288 676.124939,294.968170 675.651611,295.408203 
z"/>
<path fill="#A302FC" opacity="1.000000" stroke="none" 
	d="
M674.637939,296.398315 
	C674.610535,296.230988 674.834167,295.927429 675.313660,295.491272 
	C675.342712,295.659821 675.115906,295.960968 674.637939,296.398315 
z"/>
<path fill="#A302FC" opacity="1.000000" stroke="none" 
	d="
M673.633423,297.393280 
	C673.604004,297.225800 673.825195,296.919281 674.300415,296.475189 
	C674.330994,296.643158 674.107544,296.948700 673.633423,297.393280 
z"/>
<path fill="#A302FC" opacity="1.000000" stroke="none" 
	d="
M672.623047,298.395020 
	C672.594360,298.226593 672.819763,297.918457 673.300415,297.469421 
	C673.329590,297.637482 673.103394,297.946381 672.623047,298.395020 
z"/>
<path fill="#A302FC" opacity="1.000000" stroke="none" 
	d="
M671.621582,299.395264 
	C671.591492,299.225159 671.817322,298.915680 672.298828,298.463928 
	C672.328857,298.633057 672.103210,298.944458 671.621582,299.395264 
z"/>
<path fill="#A302FC" opacity="1.000000" stroke="none" 
	d="
M670.684448,300.403351 
	C670.651794,300.243530 670.856384,299.926575 671.308838,299.460938 
	C671.344971,299.623596 671.133301,299.934906 670.684448,300.403351 
z"/>
<path fill="#A302FC" opacity="1.000000" stroke="none" 
	d="
M669.672485,301.416901 
	C669.648376,301.258423 669.861816,300.953827 670.328979,300.520203 
	C670.358521,300.684357 670.134216,300.977570 669.672485,301.416901 
z"/>
<path fill="#357CF9" opacity="1.000000" stroke="none" 
	d="
M432.355438,398.575256 
	C432.379761,398.741943 432.157532,399.044312 431.672668,399.464600 
	C431.643036,399.291992 431.875946,399.001434 432.355438,398.575256 
z"/>
<path fill="#357CF9" opacity="1.000000" stroke="none" 
	d="
M434.296692,396.577759 
	C434.329437,396.738251 434.128967,397.055176 433.674866,397.508728 
	C433.635345,397.341644 433.849396,397.037903 434.296692,396.577759 
z"/>
<path fill="#357CF9" opacity="1.000000" stroke="none" 
	d="
M433.339661,397.587952 
	C433.371918,397.755951 433.157288,398.070526 432.683960,398.521240 
	C432.647797,398.349701 432.870270,398.042114 433.339661,397.587952 
z"/>
<path fill="#000101" opacity="1.000000" stroke="none" 
	d="
M380.542023,261.021881 
	C387.365540,260.993378 393.726105,261.046906 400.550598,261.018860 
	C401.457703,260.991028 401.900818,261.044830 402.671509,261.017578 
	C404.348328,260.176758 405.803925,260.593109 407.605774,260.744324 
	C415.637543,261.019379 422.843109,262.609711 429.552795,267.196838 
	C439.075562,276.394531 448.242584,285.514709 457.709961,294.769287 
	C464.114105,301.209747 470.217804,307.515808 476.642334,313.924805 
	C482.687897,319.825256 488.342682,325.694672 494.177338,331.379395 
	C496.088776,333.241699 496.692963,334.505005 494.315948,336.451874 
	C492.146393,338.228790 490.312714,340.415802 488.191528,342.725159 
	C487.968353,343.686707 487.631714,344.194183 486.816772,344.500610 
	C486.516785,344.406006 486.458649,344.516418 486.500397,344.471497 
	C486.846191,344.979584 486.732269,345.425995 485.810822,345.669403 
	C485.421143,345.573029 485.568604,345.571106 485.558075,345.498138 
	C485.842041,345.983337 485.723846,346.433044 484.804382,346.666748 
	C484.415863,346.559265 484.567719,346.507355 484.487671,346.502014 
	C484.738464,347.639313 483.741638,347.972687 482.826965,348.486755 
	C482.500854,348.418579 482.485321,348.661835 482.516571,348.544037 
	C482.887115,348.965149 482.773987,349.380676 481.817749,349.636322 
	C481.427551,349.599945 481.391907,349.594635 481.380371,349.608643 
	C475.025787,355.877380 468.682709,362.132111 462.167633,368.669312 
	C460.286469,370.730682 458.946350,371.034424 456.947693,368.880432 
	C451.976562,363.522827 446.666962,358.479248 441.187134,353.166687 
	C440.485657,352.472534 439.738770,352.516205 439.339325,351.763336 
	C439.401031,351.450317 439.376770,351.614197 439.459534,351.617859 
	C438.998108,351.839966 438.565826,351.703644 438.301788,350.833710 
	C438.358093,350.454926 438.358337,350.638977 438.450012,350.630859 
	C437.997711,350.839905 437.565704,350.703308 437.301941,349.834167 
	C437.358185,349.455688 437.358337,349.639038 437.449646,349.630920 
	C436.996796,349.838898 436.564667,349.701691 436.301086,348.833160 
	C436.357697,348.454712 436.358063,348.639221 436.449951,348.631012 
	C435.996918,348.838837 435.564178,348.701385 435.300659,347.831940 
	C435.357788,347.453064 435.358643,347.638153 435.450806,347.629700 
	C434.997772,347.839355 434.564667,347.702606 434.301636,346.831726 
	C434.359558,346.452515 434.376556,346.627930 434.463074,346.611206 
	C433.603821,346.871307 433.589203,346.125977 433.182678,345.335388 
	C432.952850,345.112183 432.953644,345.029358 432.912262,345.029602 
	C424.444061,336.479584 416.017273,327.929382 407.289429,319.245667 
	C406.758392,319.136993 406.528351,319.161835 406.419739,318.861511 
	C406.541138,318.536407 406.521545,318.442474 406.473572,318.440247 
	C405.863586,318.711884 405.381348,318.609161 405.256409,317.826477 
	C401.519226,313.445557 397.504211,309.369629 393.179565,305.155853 
	C392.476410,304.471985 391.733673,304.515869 391.339691,303.764587 
	C391.401764,303.453766 391.376434,303.616577 391.458710,303.620850 
	C390.997772,303.840424 390.566376,303.703461 390.294128,302.835327 
	C390.341522,302.456329 390.342102,302.653625 390.440430,302.645630 
	C389.994843,302.839752 389.563721,302.698242 389.293152,301.835083 
	C389.340942,301.457062 389.342773,301.655365 389.441559,301.646790 
	C388.986969,301.830261 388.548706,301.681885 388.313538,300.817169 
	C388.401642,300.440796 388.403046,300.594482 388.479279,300.584778 
	C388.007477,300.839783 387.568512,300.716370 387.319000,299.821594 
	C387.399445,299.438232 387.414856,299.585571 387.487000,299.568848 
	C386.594025,299.904907 386.600891,299.127167 386.196564,298.336792 
	C385.780273,297.809784 385.585052,297.516602 385.138947,297.124512 
	C376.782806,288.810394 368.677582,280.595154 360.269714,272.245056 
	C359.361084,271.878204 358.847595,271.496887 358.404755,270.788727 
	C358.467621,270.474426 358.419525,270.600769 358.485291,270.616394 
	C358.006958,270.872040 357.595764,270.729431 357.320679,269.825134 
	C357.323792,269.446503 357.325684,269.415192 357.320465,269.400391 
	C354.943390,266.835541 352.571503,264.285522 350.174957,261.405396 
	C360.126556,261.084839 370.102814,261.094360 380.542023,261.021881 
z"/>
<path fill="#4D62FB" opacity="1.000000" stroke="none" 
	d="
M482.837585,348.435486 
	C482.989197,347.884247 483.477539,347.349915 484.186737,346.656128 
	C484.509308,347.471924 484.350464,348.282898 482.837585,348.435486 
z"/>
<path fill="#4D62FB" opacity="1.000000" stroke="none" 
	d="
M486.776001,344.469055 
	C486.862213,344.006500 487.207642,343.607025 487.802551,343.117920 
	C488.585632,344.119476 488.183411,344.577972 486.776001,344.469055 
z"/>
<path fill="#4D62FB" opacity="1.000000" stroke="none" 
	d="
M485.672699,345.452820 
	C485.640717,345.287933 485.860260,345.002838 486.310974,344.572144 
	C486.336182,344.728577 486.130219,345.030609 485.672699,345.452820 
z"/>
<path fill="#4D62FB" opacity="1.000000" stroke="none" 
	d="
M484.668976,346.442383 
	C484.638519,346.277069 484.861176,345.994843 485.315674,345.568909 
	C485.339050,345.725281 485.130554,346.025421 484.668976,346.442383 
z"/>
<path fill="#4D62FB" opacity="1.000000" stroke="none" 
	d="
M481.679199,349.473480 
	C481.645020,349.307465 481.862518,349.015015 482.313904,348.574402 
	C482.342163,348.733154 482.136505,349.040070 481.679199,349.473480 
z"/>
<path fill="#010102" opacity="1.000000" stroke="none" 
	d="
M486.612427,431.094604 
	C489.904358,434.339508 492.884583,437.442596 496.128418,440.777130 
	C492.845032,446.525482 487.434357,450.299652 483.037323,455.445374 
	C476.658203,461.879944 470.413025,468.016052 464.031860,474.450775 
	C455.770844,482.751129 447.621155,490.728058 439.534698,498.768524 
	C436.820221,501.467529 433.894745,503.855347 430.304016,505.973694 
	C429.220001,506.845184 428.279510,507.257080 427.000458,507.608032 
	C426.691650,507.602997 426.645416,507.598267 426.636047,507.619965 
	C423.674438,508.159973 420.722198,508.678284 417.368530,509.329041 
	C411.615936,509.432373 406.264801,509.403259 400.450989,509.450439 
	C392.628571,509.471283 385.268799,509.415802 377.445831,509.442810 
	C371.601105,509.477997 366.219604,509.430664 360.370697,509.462830 
	C358.907715,509.476440 357.911377,509.500946 356.546448,509.577728 
	C354.298431,506.529877 358.432495,506.708252 358.940979,504.531647 
	C367.694153,495.723541 376.312225,487.214691 385.076599,478.399994 
	C391.836090,471.522980 398.533569,465.032227 404.966003,458.288635 
	C405.868042,457.342926 407.252533,457.092194 407.947113,455.548492 
	C416.333344,447.102264 424.575195,438.963989 432.950989,430.526520 
	C441.831543,421.540405 450.578125,412.853485 459.614044,403.992065 
	C465.240204,409.459839 470.577026,415.102173 476.198578,420.861084 
	C479.755768,424.302673 483.028229,427.627716 486.612427,431.094604 
z"/>
<path fill="#357CF9" opacity="1.000000" stroke="none" 
	d="
M433.067078,345.376465 
	C433.388275,345.445587 433.823700,345.779022 434.404358,346.353485 
	C434.093506,346.276581 433.637390,345.958679 433.067078,345.376465 
z"/>
<path fill="#357CF9" opacity="1.000000" stroke="none" 
	d="
M439.488800,351.723083 
	C439.830322,351.801208 440.259583,352.152130 440.784912,352.763428 
	C440.446167,352.681152 440.011353,352.338501 439.488800,351.723083 
z"/>
<path fill="#357CF9" opacity="1.000000" stroke="none" 
	d="
M437.490906,349.709351 
	C437.659332,349.678925 437.960449,349.902191 438.401611,350.374084 
	C438.235657,350.402802 437.929657,350.182892 437.490906,349.709351 
z"/>
<path fill="#357CF9" opacity="1.000000" stroke="none" 
	d="
M434.491577,346.706970 
	C434.660431,346.676361 434.961334,346.900238 435.402588,347.372650 
	C435.236481,347.401276 434.930054,347.181335 434.491577,346.706970 
z"/>
<path fill="#357CF9" opacity="1.000000" stroke="none" 
	d="
M435.490479,347.707153 
	C435.659088,347.676941 435.960358,347.900818 436.401733,348.373779 
	C436.235596,348.402283 435.929413,348.181793 435.490479,347.707153 
z"/>
<path fill="#357CF9" opacity="1.000000" stroke="none" 
	d="
M436.490479,348.708405 
	C436.658813,348.678223 436.959930,348.901703 437.401001,349.374023 
	C437.235077,349.402557 436.929169,349.182312 436.490479,348.708405 
z"/>
<path fill="#357CF9" opacity="1.000000" stroke="none" 
	d="
M438.490723,350.708801 
	C438.659363,350.678101 438.960663,350.901276 439.402100,351.372986 
	C439.235962,351.401917 438.929626,351.182312 438.490723,350.708801 
z"/>
<path fill="#2F74E6" opacity="1.000000" stroke="none" 
	d="
M356.428223,509.755249 
	C357.177399,509.521210 358.177063,509.403717 359.539978,509.414246 
	C358.880920,510.165985 357.789215,510.111023 356.428223,509.755249 
z"/>
<path fill="#2F74E6" opacity="1.000000" stroke="none" 
	d="
M427.029236,507.666260 
	C427.595306,507.139343 428.498932,506.675659 429.711060,506.190430 
	C429.544891,507.385254 428.632843,507.858215 427.029236,507.666260 
z"/>
<path fill="#15A1FB" opacity="1.000000" stroke="none" 
	d="
M358.466309,270.716370 
	C358.895386,270.844574 359.323120,271.214691 359.859009,271.847534 
	C358.948730,272.401306 358.564972,271.864838 358.466309,270.716370 
z"/>
<path fill="#15A1FB" opacity="1.000000" stroke="none" 
	d="
M357.470215,269.699280 
	C357.635437,269.672333 357.947083,269.898163 358.404877,270.377991 
	C358.239563,270.405365 357.928070,270.178741 357.470215,269.699280 
z"/>
<path fill="#2C87FA" opacity="1.000000" stroke="none" 
	d="
M405.394470,317.649384 
	C405.807343,317.640778 406.033295,317.819672 406.318848,318.248108 
	C406.191162,318.539001 405.956665,318.639954 405.362274,318.871490 
	C405.002350,319.002106 405.000000,319.000000 404.998657,318.997742 
	C404.882507,318.837952 404.767670,318.680359 404.815887,318.279968 
	C404.978973,318.037170 405.254669,317.777283 405.394470,317.649384 
z"/>
<path fill="#2C87FA" opacity="1.000000" stroke="none" 
	d="
M406.515778,318.661346 
	C406.541138,318.536407 406.863098,318.747894 406.925751,318.930054 
	C406.988403,319.112183 406.636230,319.088379 406.636230,319.088379 
	C406.636230,319.088379 406.490417,318.786285 406.515778,318.661346 
z"/>
<path fill="#2192FA" opacity="1.000000" stroke="none" 
	d="
M386.088806,298.364197 
	C386.404205,298.429993 386.832855,298.757050 387.410339,299.318085 
	C387.106781,299.243225 386.654419,298.934326 386.088806,298.364197 
z"/>
<path fill="#2192FA" opacity="1.000000" stroke="none" 
	d="
M391.490540,303.723755 
	C391.827667,303.802856 392.253540,304.151978 392.774689,304.759521 
	C392.439728,304.676575 392.009491,304.335144 391.490540,303.723755 
z"/>
<path fill="#2192FA" opacity="1.000000" stroke="none" 
	d="
M390.481079,302.707581 
	C390.646851,302.679016 390.952209,302.901703 391.399261,303.374756 
	C391.234192,303.403015 390.927429,303.180939 390.481079,302.707581 
z"/>
<path fill="#2192FA" opacity="1.000000" stroke="none" 
	d="
M387.526367,299.687988 
	C387.689545,299.659149 387.979614,299.880035 388.412598,300.338013 
	C388.254761,300.362640 387.954010,300.150208 387.526367,299.687988 
z"/>
<path fill="#2192FA" opacity="1.000000" stroke="none" 
	d="
M388.525970,300.696472 
	C388.692535,300.673096 388.983429,300.905396 389.407349,301.387939 
	C389.243652,301.409515 388.946991,301.180817 388.525970,300.696472 
z"/>
<path fill="#2192FA" opacity="1.000000" stroke="none" 
	d="
M389.480042,301.709747 
	C389.646820,301.681915 389.952667,301.906769 390.398651,302.384613 
	C390.232239,302.412537 389.925690,302.187500 389.480042,301.709747 
z"/>
<path fill="#357CF9" opacity="1.000000" stroke="none" 
	d="
M404.890442,318.144928 
	C404.978973,318.037170 404.989563,318.516388 404.993439,318.755951 
	C404.760559,318.784912 404.695435,318.537292 404.890442,318.144928 
z"/>
<path fill="#2C87FA" opacity="1.000000" stroke="none" 
	d="
M407.713745,260.744751 
	C406.602631,260.988403 405.212158,261.043060 403.410400,261.017151 
	C404.399628,259.902283 405.879547,259.792511 407.713745,260.744751 
z"/>
</svg>